<svg width="24" height="24" viewBox="0 0 24 24" fill="none" xmlns="http://www.w3.org/2000/svg">
<g id="check-square">
<path id="Subtract" fill-rule="evenodd" clip-rule="evenodd" d="M7.76322 2.125H16.2368H16.2368C17.0456 2.12499 17.7056 2.12498 18.2416 2.16878C18.796 2.21407 19.2944 2.31054 19.7592 2.54735C20.4883 2.91886 21.0811 3.51166 21.4527 4.24079C21.6895 4.70556 21.7859 5.20399 21.8312 5.75835C21.875 6.29438 21.875 6.95441 21.875 7.76319V16.2369C21.875 17.0457 21.875 17.7056 21.8312 18.2416C21.7859 18.796 21.6895 19.2944 21.4527 19.7592C21.0811 20.4883 20.4883 21.0811 19.7592 21.4527C19.2944 21.6895 18.796 21.7859 18.2416 21.8312C17.7056 21.875 17.0456 21.875 16.2368 21.875H7.7631C6.95431 21.875 6.29438 21.875 5.75835 21.8312C5.20399 21.7859 4.70556 21.6895 4.24079 21.4527C3.51166 21.0811 2.91886 20.4883 2.54735 19.7592C2.31054 19.2944 2.21407 18.796 2.16878 18.2416C2.12498 17.7056 2.12499 17.0456 2.125 16.2368V16.2368V7.7632V7.76318C2.12499 6.95436 2.12498 6.2944 2.16878 5.75835C2.21407 5.20399 2.31054 4.70556 2.54735 4.24079C2.91886 3.51166 3.51166 2.91886 4.24079 2.54735C4.70557 2.31054 5.20399 2.21407 5.75835 2.16878C6.2944 2.12498 6.95438 2.12499 7.7632 2.125H7.76322ZM17.1187 9.61872C17.4604 9.27701 17.4604 8.72299 17.1187 8.38128C16.777 8.03957 16.223 8.03957 15.8813 8.38128L10.5 13.7626L8.11872 11.3813C7.77701 11.0396 7.22299 11.0396 6.88128 11.3813C6.53957 11.723 6.53957 12.277 6.88128 12.6187L9.88128 15.6187C10.223 15.9604 10.777 15.9604 11.1187 15.6187L17.1187 9.61872Z" fill="#C1BEBE"/>
</g>
</svg>
