<svg width="12" height="13" viewBox="0 0 12 13" fill="none" xmlns="http://www.w3.org/2000/svg">
<path d="M12 6.19141C12 9.50512 9.31371 12.1914 6 12.1914C5.2019 12.1914 4.4402 12.0356 3.74366 11.7527C3.61035 11.6986 3.54369 11.6715 3.48981 11.6594C3.43711 11.6476 3.3981 11.6433 3.34409 11.6433C3.28887 11.6433 3.22872 11.6533 3.10843 11.6733L0.736507 12.0687C0.488122 12.1101 0.363929 12.1308 0.274123 12.0922C0.195522 12.0585 0.132887 11.9959 0.0991736 11.9173C0.0606548 11.8275 0.0813536 11.7033 0.122751 11.4549L0.518072 9.08297C0.538121 8.96268 0.548145 8.90254 0.548138 8.84732C0.548131 8.79331 0.543811 8.7543 0.531997 8.70159C0.51992 8.64771 0.492849 8.58106 0.438708 8.44775C0.155824 7.7512 0 6.9895 0 6.19141C0 2.8777 2.68629 0.191406 6 0.191406C9.31371 0.191406 12 2.8777 12 6.19141Z" fill="#E6E5E6"/>
</svg>
