<svg width="77" height="20" viewBox="0 0 77 20" fill="none" xmlns="http://www.w3.org/2000/svg">
<path d="M69.8789 19.052V14.036H66.4688C65.0168 16.632 62.7069 18.172 59.7149 18.568V15.928C62.6189 15.4 65.4349 12.782 65.4349 6.116V2.948H60.1549V0.440001H68.2068V4.092H69.8789V0.0880002H72.6068V19.052H69.8789ZM67.4809 11.572H69.8789V6.556H68.2068C68.1628 8.426 67.9209 10.12 67.4809 11.572ZM73.8829 19.228V0H76.6549V19.228H73.8829Z" fill="url(#paint0_linear_83_2713)"/>
<path d="M50.0806 19.052V9.02H47.7486V6.468H50.0806V0.0880002H52.8086V19.052H50.0806ZM40.1366 18.568V15.268C41.6326 14.08 43.2166 11.22 43.2166 7.128V0.330001H45.9886V7.128C45.9886 10.868 47.5726 13.684 49.0686 14.74V17.952C47.5726 17.204 45.7906 15.334 44.6686 12.936C43.5686 15.62 41.6986 17.71 40.1366 18.568ZM54.0846 19.228V0H56.8566V19.228H54.0846Z" fill="url(#paint1_linear_83_2713)"/>
<path d="M19.8983 15.818C24.3423 15.774 29.5563 15.466 34.1983 14.366V0H37.0583V19.228H34.1983V16.918C29.5563 18.018 24.3423 18.326 19.8983 18.37V15.818ZM20.5583 6.116C20.5583 2.596 23.1983 0.220001 26.3883 0.220001C29.5783 0.220001 32.2183 2.596 32.2183 6.116C32.2183 9.636 29.5783 12.012 26.3883 12.012C23.1983 12.012 20.5583 9.636 20.5583 6.116ZM23.3303 6.116C23.3303 8.228 24.6943 9.548 26.3883 9.548C28.0823 9.548 29.4463 8.228 29.4463 6.116C29.4463 4.004 28.0823 2.684 26.3883 2.684C24.6943 2.684 23.3303 4.004 23.3303 6.116Z" fill="url(#paint2_linear_83_2713)"/>
<path d="M3.81801 19.228V14.168H0.100006V11.616C6.17201 11.616 12.046 11.572 18.14 10.89V13.442C16.886 13.574 15.654 13.684 14.422 13.794V19.228H11.65V13.948C9.95601 14.036 8.28401 14.102 6.59001 14.124V19.228H3.81801ZM0.980006 9.46V0.352001H3.57601V2.464H6.08401V0.352001H8.68001V9.372C6.12801 9.438 3.57601 9.46 0.980006 9.46ZM3.57601 7.084C4.41201 7.062 5.24801 7.062 6.08401 7.04V4.796H3.57601V7.084ZM9.56001 9.35V0.352001H12.156V2.464H14.664V0.352001H17.26V8.844C14.664 9.108 12.112 9.24 9.56001 9.35ZM12.156 6.842C12.992 6.798 13.828 6.754 14.664 6.688V4.796H12.156V6.842Z" fill="url(#paint3_linear_83_2713)"/>
<defs>
<linearGradient id="paint0_linear_83_2713" x1="59.7149" y1="0" x2="77.3264" y2="0.668016" gradientUnits="userSpaceOnUse">
<stop stop-color="#EC6560"/>
<stop offset="1" stop-color="#ED8284"/>
</linearGradient>
<linearGradient id="paint1_linear_83_2713" x1="40.1366" y1="0" x2="57.5201" y2="0.650802" gradientUnits="userSpaceOnUse">
<stop stop-color="#EC6560"/>
<stop offset="1" stop-color="#ED8284"/>
</linearGradient>
<linearGradient id="paint2_linear_83_2713" x1="19.8983" y1="0" x2="37.7379" y2="0.685454" gradientUnits="userSpaceOnUse">
<stop stop-color="#EC6560"/>
<stop offset="1" stop-color="#ED8284"/>
</linearGradient>
<linearGradient id="paint3_linear_83_2713" x1="0.100006" y1="0.352001" x2="18.8504" y2="1.12352" gradientUnits="userSpaceOnUse">
<stop stop-color="#EC6560"/>
<stop offset="1" stop-color="#ED8284"/>
</linearGradient>
</defs>
</svg>
