<svg width="10" height="10" viewBox="0 0 10 10" fill="none" xmlns="http://www.w3.org/2000/svg">
<g id="star-01">
<path id="Icon" d="M4.70102 1.43939C4.79706 1.24483 4.84508 1.14755 4.91026 1.11647C4.96698 1.08943 5.03287 1.08943 5.08959 1.11647C5.15477 1.14755 5.20279 1.24483 5.29883 1.43939L6.20994 3.28521C6.2383 3.34265 6.25247 3.37137 6.27319 3.39366C6.29153 3.41341 6.31353 3.4294 6.33797 3.44077C6.36557 3.4536 6.39726 3.45823 6.46064 3.4675L8.49866 3.76539C8.71328 3.79675 8.82058 3.81244 8.87024 3.86486C8.91345 3.91046 8.93377 3.97313 8.92555 4.03541C8.91609 4.107 8.83841 4.18267 8.68303 4.334L7.20886 5.76985C7.1629 5.81461 7.13992 5.83699 7.1251 5.86362C7.11197 5.88719 7.10355 5.9131 7.1003 5.93989C7.09663 5.97014 7.10205 6.00176 7.1129 6.06498L7.46073 8.09306C7.49742 8.30696 7.51577 8.41392 7.48129 8.47738C7.4513 8.5326 7.39798 8.57133 7.33619 8.58279C7.26518 8.59595 7.16913 8.54545 6.97705 8.44443L5.15508 7.48627C5.09831 7.45642 5.06992 7.44149 5.04002 7.43563C5.01354 7.43043 4.98631 7.43043 4.95983 7.43563C4.92993 7.44149 4.90154 7.45642 4.84478 7.48627L3.0228 8.44443C2.83072 8.54545 2.73467 8.59595 2.66366 8.58279C2.60187 8.57133 2.54855 8.5326 2.51856 8.47738C2.48409 8.41392 2.50243 8.30696 2.53912 8.09306L2.88695 6.06498C2.8978 6.00176 2.90322 5.97014 2.89955 5.93989C2.8963 5.9131 2.88788 5.88719 2.87475 5.86362C2.85993 5.83699 2.83695 5.81461 2.791 5.76985L1.31682 4.334C1.16144 4.18267 1.08376 4.107 1.0743 4.03541C1.06608 3.97313 1.0864 3.91046 1.12961 3.86486C1.17927 3.81244 1.28657 3.79675 1.50119 3.76539L3.53921 3.4675C3.6026 3.45823 3.63429 3.4536 3.66188 3.44077C3.68632 3.4294 3.70832 3.41341 3.72666 3.39366C3.74738 3.37137 3.76156 3.34265 3.78991 3.28521L4.70102 1.43939Z" fill="#FEC63D" stroke="#FEC63D" stroke-width="0.416667" stroke-linecap="round" stroke-linejoin="round"/>
</g>
</svg>
